<?xml version="1.0" encoding="UTF-8"?>
<svg version="1.1" xmlns="http://www.w3.org/2000/svg" width="23" height="27">
<path d="M0 0 C1.32 0 2.64 0 4 0 C3.34 1.65 2.68 3.3 2 5 C2.78375 5.268125 3.5675 5.53625 4.375 5.8125 C7 7 7 7 9 10 C8.01 10.495 8.01 10.495 7 11 C6.83318891 13.91652174 6.83318891 13.91652174 7 17 C7.66 17.66 8.32 18.32 9 19 C8.79670052 21.64289318 8.38913771 23.4326209 6.8828125 25.62890625 C4.02175792 27.71237131 1.55506725 27.47068149 -1.9375 27.5 C-3.77634766 27.54640625 -3.77634766 27.54640625 -5.65234375 27.59375 C-9 27 -9 27 -11.37890625 24.59375 C-14.4315695 19.7094888 -14.64349718 15.70873927 -14 10 C-12.4375 7.3125 -12.4375 7.3125 -10 6 C-6.25 6.25 -6.25 6.25 -3 7 C-2.87625 6.21625 -2.7525 5.4325 -2.625 4.625 C-2 2 -2 2 0 0 Z " fill="#FFFFFF" transform="translate(14,0)"/>
</svg>
