<?xml version="1.0" encoding="UTF-8"?>
<svg version="1.1" xmlns="http://www.w3.org/2000/svg" width="26" height="26">
<path d="M0 0 C4.14452147 0.46377416 7.21196714 2.02364404 10.8125 4.0625 C11.78832031 4.61035156 12.76414062 5.15820312 13.76953125 5.72265625 C14.50558594 6.14417969 15.24164062 6.56570312 16 7 C15.6875 8.9375 15.6875 8.9375 15 11 C14.01 11.33 13.02 11.66 12 12 C12 12.66 12 13.32 12 14 C13.32 14.66 14.64 15.32 16 16 C16 16.99 16 17.98 16 19 C13.92426919 20.20284401 11.84116905 21.38705701 9.75 22.5625 C8.87021484 23.07586914 8.87021484 23.07586914 7.97265625 23.59960938 C3.49195805 26.09168309 3.49195805 26.09168309 0.79785156 25.58959961 C0.20456055 25.39503174 -0.38873047 25.20046387 -1 25 C-1.02886984 21.02084841 -1.04675406 17.04172347 -1.0625 13.0625 C-1.07087891 11.92619141 -1.07925781 10.78988281 -1.08789062 9.61914062 C-1.09111328 8.53955078 -1.09433594 7.45996094 -1.09765625 6.34765625 C-1.10289307 5.34742432 -1.10812988 4.34719238 -1.11352539 3.31665039 C-1 1 -1 1 0 0 Z " fill="#FFFFFF" transform="translate(2,0)"/>
<path d="M0 0 C1.98 0.66 3.96 1.32 6 2 C6 3.32 6 4.64 6 6 C4.02 6.66 2.04 7.32 0 8 C-0.99 7.01 -1.98 6.02 -3 5 C-1.125 1.125 -1.125 1.125 0 0 Z " fill="#FFFFFF" transform="translate(19,9)"/>
</svg>
