<?xml version="1.0" encoding="UTF-8"?>
<svg xmlns="http://www.w3.org/2000/svg" xmlns:xlink="http://www.w3.org/1999/xlink" width="27px" height="48px" viewBox="0 0 27 47" version="1.1">
<g id="surface1">
<path style=" stroke:none;fill-rule:nonzero;fill:rgb(64.705884%,45.09804%,98.823529%);fill-opacity:1;" d="M 0 0 C 8.910156 0 17.820312 0 27 0 C 27 15.511719 27 31.019531 27 47 C 18.089844 47 9.179688 47 0 47 C 0 31.488281 0 15.980469 0 0 Z M 0 0 "/>
<path style=" stroke:none;fill-rule:nonzero;fill:rgb(96.470588%,96.078432%,96.862745%);fill-opacity:1;" d="M 0 0 C 3.875 0 7.746094 0 11.738281 0 C 11.738281 0.0625 11.738281 0.128906 11.738281 0.195312 C 11.5625 0.234375 11.382812 0.269531 11.199219 0.3125 C 7.859375 1.101562 4.734375 2.679688 2.835938 5.65625 C 1.105469 8.84375 0.804688 12.769531 1.699219 16.273438 C 1.839844 16.703125 1.988281 17.128906 2.152344 17.550781 C 2.214844 17.722656 2.277344 17.890625 2.339844 18.066406 C 4.101562 22.15625 8.449219 24.675781 12.058594 26.925781 C 17.621094 30.414062 17.621094 30.414062 18.5 33.128906 C 18.824219 34.703125 18.644531 36.070312 17.804688 37.445312 C 17.25 38.238281 16.742188 38.632812 15.871094 39.054688 C 15.578125 39.199219 15.578125 39.199219 15.273438 39.347656 C 13.191406 40.183594 11.039062 39.773438 9 39.003906 C 7.597656 38.367188 6.277344 37.527344 5.074219 36.570312 C 4.507812 36.125 3.914062 35.71875 3.324219 35.296875 C 2.292969 37.421875 1.261719 39.546875 0.195312 41.734375 C 0.132812 41.734375 0.0664062 41.734375 0 41.734375 C 0 27.960938 0 14.191406 0 0 Z M 0 0 "/>
<path style=" stroke:none;fill-rule:nonzero;fill:rgb(96.470588%,96.078432%,96.862745%);fill-opacity:1;" d="M 15.652344 0 C 19.398438 0 23.140625 0 27 0 C 27 15.511719 27 31.019531 27 47 C 22.675781 47 18.347656 47 13.890625 47 C 13.890625 46.9375 13.890625 46.871094 13.890625 46.804688 C 14.125 46.777344 14.355469 46.746094 14.59375 46.71875 C 18.035156 46.257812 21.777344 45.339844 24.066406 42.515625 C 26.445312 39.15625 27.117188 35.207031 26.550781 31.167969 C 26.394531 30.425781 26.132812 29.75 25.824219 29.058594 C 25.746094 28.863281 25.667969 28.667969 25.589844 28.46875 C 24.261719 25.488281 21.652344 23.476562 18.9375 21.800781 C 18.378906 21.445312 17.847656 21.066406 17.316406 20.671875 C 16.613281 20.15625 15.902344 19.671875 15.164062 19.210938 C 10.3125 16.164062 10.3125 16.164062 9.667969 13.585938 C 9.414062 11.964844 9.417969 10.542969 10.371094 9.164062 C 10.445312 9.054688 10.519531 8.945312 10.597656 8.832031 C 11.371094 7.8125 12.269531 7.425781 13.5 7.214844 C 15.757812 6.996094 18.117188 7.628906 19.957031 8.972656 C 20.574219 9.53125 21.152344 10.117188 21.71875 10.726562 C 22.46875 9.78125 23.019531 8.710938 23.601562 7.660156 C 23.808594 7.289062 24.015625 6.917969 24.222656 6.546875 C 24.355469 6.3125 24.488281 6.078125 24.617188 5.84375 C 24.738281 5.628906 24.855469 5.414062 24.980469 5.195312 C 25.269531 4.71875 25.269531 4.71875 25.238281 4.289062 C 24.949219 4.050781 24.949219 4.050781 24.566406 3.824219 C 24.421875 3.734375 24.277344 3.644531 24.125 3.550781 C 23.96875 3.457031 23.8125 3.363281 23.648438 3.265625 C 23.488281 3.171875 23.328125 3.074219 23.164062 2.972656 C 20.761719 1.558594 18.371094 0.753906 15.652344 0.195312 C 15.652344 0.128906 15.652344 0.0664062 15.652344 0 Z M 15.652344 0 "/>
<path style=" stroke:none;fill-rule:nonzero;fill:rgb(96.470588%,95.294118%,97.254902%);fill-opacity:1;" d="M 0 42.125 C 1.925781 43.191406 1.925781 43.191406 2.8125 43.78125 C 5.382812 45.421875 8.324219 46.429688 11.347656 46.804688 C 11.347656 46.871094 11.347656 46.933594 11.347656 47 C 7.601562 47 3.859375 47 0 47 C 0 45.390625 0 43.78125 0 42.125 Z M 0 42.125 "/>
<path style=" stroke:none;fill-rule:nonzero;fill:rgb(96.862745%,91.37255%,99.607843%);fill-opacity:1;" d="M 24.652344 41.734375 C 24.652344 41.925781 24.652344 42.121094 24.652344 42.320312 C 24.457031 42.417969 24.457031 42.417969 24.261719 42.515625 C 24.390625 42.257812 24.519531 42 24.652344 41.734375 Z M 24.066406 42.515625 C 24.128906 42.644531 24.195312 42.773438 24.261719 42.90625 C 24.066406 43.078125 24.066406 43.078125 23.871094 43.257812 C 23.414062 43.660156 23.414062 43.660156 23.476562 44.269531 C 22.941406 44.535156 22.402344 44.800781 21.863281 45.0625 C 21.636719 45.175781 21.636719 45.175781 21.402344 45.292969 C 21.253906 45.363281 21.109375 45.433594 20.957031 45.507812 C 20.753906 45.605469 20.753906 45.605469 20.546875 45.707031 C 20.078125 45.851562 19.828125 45.792969 19.371094 45.636719 C 19.679688 45.492188 19.679688 45.492188 20 45.347656 C 21.59375 44.601562 22.933594 43.910156 24.066406 42.515625 Z M 24.066406 42.515625 "/>
<path style=" stroke:none;fill-rule:nonzero;fill:rgb(58.431375%,43.529412%,87.450981%);fill-opacity:1;" d="M 3.324219 35.105469 C 3.582031 35.289062 3.839844 35.476562 4.097656 35.664062 C 4.238281 35.769531 4.382812 35.871094 4.53125 35.980469 C 4.890625 36.273438 4.890625 36.273438 5.085938 36.664062 C 4.828125 36.597656 4.570312 36.535156 4.304688 36.46875 C 4.304688 36.339844 4.304688 36.210938 4.304688 36.078125 C 3.429688 36.289062 3.070312 36.449219 2.582031 37.222656 C 2.292969 37.8125 2.015625 38.402344 1.761719 39.003906 C 1.566406 38.417969 1.566406 38.417969 1.703125 38.046875 C 1.816406 37.84375 1.816406 37.84375 1.929688 37.636719 C 2.050781 37.414062 2.050781 37.414062 2.175781 37.1875 C 2.257812 37.035156 2.34375 36.882812 2.433594 36.726562 C 2.519531 36.570312 2.601562 36.414062 2.691406 36.253906 C 2.902344 35.871094 3.113281 35.484375 3.324219 35.105469 Z M 3.324219 35.105469 "/>
<path style=" stroke:none;fill-rule:nonzero;fill:rgb(95.294118%,90.588236%,98.823529%);fill-opacity:1;" d="M 24.261719 26.132812 C 24.648438 26.132812 25.035156 26.132812 25.433594 26.132812 C 25.449219 26.261719 25.46875 26.390625 25.484375 26.523438 C 25.617188 27.050781 25.777344 27.402344 26.035156 27.875 C 26.394531 28.558594 26.492188 29.058594 26.414062 29.839844 C 26.542969 29.839844 26.671875 29.839844 26.804688 29.839844 C 26.738281 30.09375 26.675781 30.351562 26.609375 30.617188 C 26.058594 29.796875 25.738281 28.902344 25.363281 27.992188 C 25.046875 27.308594 24.695312 26.746094 24.261719 26.132812 Z M 24.261719 26.132812 "/>
<path style=" stroke:none;fill-rule:nonzero;fill:rgb(59.215689%,44.313726%,87.450981%);fill-opacity:1;" d="M 1.761719 16.382812 C 2.308594 16.929688 2.472656 17.554688 2.738281 18.269531 C 2.914062 18.75 2.914062 18.75 3.324219 19.113281 C 3.519531 19.175781 3.714844 19.242188 3.914062 19.308594 C 3.976562 19.113281 4.042969 18.921875 4.109375 18.722656 C 4.171875 18.914062 4.238281 19.109375 4.304688 19.308594 C 4.109375 19.597656 4.109375 19.597656 3.914062 19.890625 C 4.070312 20.414062 4.070312 20.414062 4.304688 20.867188 C 3.148438 19.75 2.277344 18.695312 1.761719 17.160156 C 1.761719 16.90625 1.761719 16.648438 1.761719 16.382812 Z M 1.761719 16.382812 "/>
<path style=" stroke:none;fill-rule:nonzero;fill:rgb(57.647061%,41.960785%,85.882354%);fill-opacity:1;" d="M 1.175781 10.140625 C 1.238281 10.140625 1.304688 10.140625 1.371094 10.140625 C 1.382812 10.390625 1.394531 10.640625 1.40625 10.894531 C 1.421875 11.222656 1.4375 11.546875 1.457031 11.871094 C 1.460938 12.035156 1.46875 12.199219 1.476562 12.371094 C 1.488281 12.527344 1.496094 12.683594 1.503906 12.84375 C 1.515625 13.0625 1.515625 13.0625 1.523438 13.285156 C 1.546875 13.667969 1.546875 13.667969 1.761719 14.042969 C 1.773438 14.40625 1.777344 14.773438 1.773438 15.136719 C 1.769531 15.335938 1.769531 15.53125 1.769531 15.730469 C 1.765625 15.882812 1.761719 16.03125 1.761719 16.1875 C 1.183594 15.324219 1.148438 14.570312 1.15625 13.550781 C 1.15625 13.351562 1.15625 13.152344 1.15625 12.945312 C 1.160156 12.742188 1.160156 12.535156 1.160156 12.324219 C 1.164062 12.113281 1.164062 11.902344 1.164062 11.6875 C 1.167969 11.171875 1.167969 10.65625 1.175781 10.140625 Z M 1.175781 10.140625 "/>
<path style=" stroke:none;fill-rule:nonzero;fill:rgb(57.254905%,41.568628%,85.490197%);fill-opacity:1;" d="M 18.585938 33.542969 C 18.652344 33.542969 18.714844 33.542969 18.78125 33.542969 C 18.871094 36.496094 18.871094 36.496094 18.390625 37.640625 C 17.878906 38.140625 17.878906 38.140625 17.414062 38.417969 C 17.285156 38.355469 17.15625 38.289062 17.023438 38.222656 C 17.175781 38.023438 17.328125 37.820312 17.488281 37.613281 C 18.390625 36.335938 18.484375 35.070312 18.585938 33.542969 Z M 18.585938 33.542969 "/>
<path style=" stroke:none;fill-rule:nonzero;fill:rgb(58.039218%,43.137255%,86.274511%);fill-opacity:1;" d="M 15.652344 39.394531 C 15.394531 39.457031 15.136719 39.523438 14.871094 39.589844 C 14.871094 39.78125 14.871094 39.976562 14.871094 40.175781 C 14.363281 40.152344 13.859375 40.128906 13.351562 40.101562 C 13.210938 40.09375 13.066406 40.089844 12.921875 40.082031 C 12.179688 40.042969 11.585938 39.996094 10.957031 39.589844 C 11.203125 39.597656 11.203125 39.597656 11.449219 39.601562 C 12.507812 39.621094 14.8125 38.976562 15.652344 39.394531 Z M 15.652344 39.394531 "/>
<path style=" stroke:none;fill-rule:nonzero;fill:rgb(95.294118%,89.803922%,99.215686%);fill-opacity:1;" d="M 18 36.273438 C 18.066406 36.46875 18.128906 36.660156 18.195312 36.859375 C 17.980469 37.25 17.980469 37.25 17.65625 37.664062 C 17.554688 37.800781 17.449219 37.9375 17.34375 38.078125 C 17.023438 38.417969 17.023438 38.417969 16.433594 38.613281 C 16.699219 37.507812 17.179688 37.019531 18 36.273438 Z M 18 36.273438 "/>
<path style=" stroke:none;fill-rule:nonzero;fill:rgb(58.823532%,45.09804%,85.09804%);fill-opacity:1;" d="M 19.761719 8.777344 C 20.507812 9.078125 20.972656 9.5625 21.523438 10.140625 C 21.585938 10.078125 21.652344 10.011719 21.71875 9.945312 C 21.71875 9.816406 21.71875 9.6875 21.71875 9.554688 C 21.976562 9.554688 22.234375 9.554688 22.5 9.554688 C 22.371094 9.941406 22.242188 10.328125 22.109375 10.726562 C 21.523438 10.726562 21.523438 10.726562 21.078125 10.347656 C 20.921875 10.1875 20.765625 10.027344 20.605469 9.859375 C 20.445312 9.699219 20.289062 9.539062 20.125 9.375 C 19.761719 8.972656 19.761719 8.972656 19.761719 8.777344 Z M 19.761719 8.777344 "/>
<path style=" stroke:none;fill-rule:nonzero;fill:rgb(96.078432%,89.803922%,99.607843%);fill-opacity:1;" d="M 3.324219 4.289062 C 3.457031 4.355469 3.585938 4.417969 3.71875 4.484375 C 3.640625 4.597656 3.5625 4.707031 3.480469 4.820312 C 2.859375 5.726562 2.351562 6.582031 1.957031 7.605469 C 1.652344 6.695312 1.972656 5.929688 2.347656 5.070312 C 2.875 4.558594 2.875 4.558594 3.324219 4.289062 Z M 3.324219 4.289062 "/>
<path style=" stroke:none;fill-rule:nonzero;fill:rgb(96.862745%,90.588236%,99.607843%);fill-opacity:1;" d="M 11.738281 0 C 11.738281 0.0625 11.738281 0.128906 11.738281 0.195312 C 11.535156 0.25 11.328125 0.304688 11.117188 0.359375 C 10.847656 0.429688 10.578125 0.5 10.308594 0.574219 C 10.171875 0.609375 10.039062 0.644531 9.898438 0.679688 C 9.332031 0.832031 8.773438 0.984375 8.21875 1.171875 C 8.316406 0.804688 8.316406 0.804688 8.609375 0.390625 C 9.679688 0.0234375 10.613281 -0.0390625 11.738281 0 Z M 11.738281 0 "/>
<path style=" stroke:none;fill-rule:nonzero;fill:rgb(95.686275%,90.588236%,99.215686%);fill-opacity:1;" d="M 6.457031 23.207031 C 8.332031 24.40625 8.332031 24.40625 9 25.15625 C 8.804688 25.253906 8.804688 25.253906 8.609375 25.351562 C 8.414062 25.289062 8.222656 25.222656 8.023438 25.15625 C 8.023438 25.027344 8.023438 24.898438 8.023438 24.769531 C 7.828125 24.703125 7.632812 24.640625 7.433594 24.574219 C 7.433594 24.445312 7.433594 24.316406 7.433594 24.183594 C 6.949219 23.988281 6.949219 23.988281 6.457031 23.792969 C 6.457031 23.597656 6.457031 23.40625 6.457031 23.207031 Z M 6.457031 23.207031 "/>
<path style=" stroke:none;fill-rule:nonzero;fill:rgb(97.254902%,92.156863%,99.215686%);fill-opacity:1;" d="M 21.128906 1.363281 C 21.417969 1.398438 21.703125 1.441406 21.988281 1.488281 C 22.144531 1.507812 22.304688 1.53125 22.46875 1.554688 C 22.675781 1.65625 22.675781 1.65625 22.890625 1.753906 C 23.019531 2.140625 23.148438 2.527344 23.28125 2.925781 C 22.507812 2.539062 21.734375 2.152344 20.933594 1.753906 C 21 1.625 21.0625 1.496094 21.128906 1.363281 Z M 21.128906 1.363281 "/>
<path style=" stroke:none;fill-rule:nonzero;fill:rgb(96.078432%,91.764706%,99.215686%);fill-opacity:1;" d="M 15.261719 19.113281 C 15.648438 19.113281 16.035156 19.113281 16.433594 19.113281 C 16.5 19.371094 16.5625 19.625 16.628906 19.890625 C 16.953125 19.957031 17.277344 20.019531 17.609375 20.085938 C 17.671875 20.34375 17.738281 20.601562 17.804688 20.867188 C 17.417969 20.648438 17.03125 20.429688 16.644531 20.210938 C 16.320312 20.027344 16.320312 20.027344 15.988281 19.839844 C 15.457031 19.503906 15.457031 19.503906 15.261719 19.113281 Z M 15.261719 19.113281 "/>
<path style=" stroke:none;fill-rule:nonzero;fill:rgb(96.078432%,90.196079%,99.215686%);fill-opacity:1;" d="M 26.21875 38.222656 C 26.28125 38.222656 26.347656 38.222656 26.414062 38.222656 C 26.503906 39.117188 26.445312 39.636719 25.925781 40.355469 C 25.761719 40.554688 25.601562 40.75 25.433594 40.953125 C 25.371094 40.824219 25.304688 40.695312 25.238281 40.5625 C 25.382812 40.160156 25.542969 39.761719 25.714844 39.371094 C 25.808594 39.15625 25.902344 38.941406 25.996094 38.722656 C 26.070312 38.558594 26.140625 38.394531 26.21875 38.222656 Z M 26.21875 38.222656 "/>
<path style=" stroke:none;fill-rule:nonzero;fill:rgb(90.196079%,81.568629%,99.215686%);fill-opacity:1;" d="M 10.175781 9.554688 C 10.296875 9.898438 10.296875 9.898438 10.371094 10.335938 C 10.277344 10.511719 10.277344 10.511719 10.1875 10.691406 C 9.945312 11.1875 9.898438 11.589844 9.855469 12.140625 C 9.839844 12.3125 9.828125 12.488281 9.8125 12.667969 C 9.800781 12.800781 9.792969 12.929688 9.78125 13.066406 C 9.71875 13.066406 9.652344 13.066406 9.585938 13.066406 C 9.480469 10.59375 9.480469 10.59375 10.175781 9.554688 Z M 10.175781 9.554688 "/>
<path style=" stroke:none;fill-rule:nonzero;fill:rgb(94.901961%,89.803922%,98.431373%);fill-opacity:1;" d="M 9.78125 13.652344 C 10.171875 13.84375 10.558594 14.039062 10.957031 14.238281 C 10.957031 14.558594 10.957031 14.878906 10.957031 15.210938 C 10.589844 15.089844 10.589844 15.089844 10.175781 14.820312 C 9.929688 14.210938 9.929688 14.210938 9.78125 13.652344 Z M 9.78125 13.652344 "/>
<path style=" stroke:none;fill-rule:nonzero;fill:rgb(96.470588%,90.196079%,99.607843%);fill-opacity:1;" d="M 10.957031 26.328125 C 11.601562 26.714844 12.246094 27.101562 12.914062 27.496094 C 12.128906 27.691406 12.128906 27.691406 11.738281 27.691406 C 11.675781 27.5 11.609375 27.308594 11.542969 27.109375 C 11.152344 26.777344 11.152344 26.777344 10.761719 26.523438 C 10.824219 26.457031 10.890625 26.394531 10.957031 26.328125 Z M 10.957031 26.328125 "/>
<path style=" stroke:none;fill-rule:nonzero;fill:rgb(96.078432%,90.588236%,99.215686%);fill-opacity:1;" d="M 20.738281 22.425781 C 21.539062 22.914062 21.875 23.132812 22.304688 23.988281 C 21.722656 23.601562 21.140625 23.214844 20.542969 22.816406 C 20.609375 22.6875 20.671875 22.558594 20.738281 22.425781 Z M 20.738281 22.425781 "/>
<path style=" stroke:none;fill-rule:nonzero;fill:rgb(94.901961%,88.627452%,99.215686%);fill-opacity:1;" d="M 2.933594 35.105469 C 3.0625 35.167969 3.191406 35.234375 3.324219 35.296875 C 3.003906 35.941406 2.679688 36.585938 2.347656 37.25 C 2.285156 37.25 2.21875 37.25 2.152344 37.25 C 2.238281 36.359375 2.320312 35.769531 2.933594 35.105469 Z M 2.933594 35.105469 "/>
<path style=" stroke:none;fill-rule:nonzero;fill:rgb(95.686275%,89.411765%,99.607843%);fill-opacity:1;" d="M 15.847656 29.644531 C 16.671875 29.9375 16.96875 30.480469 17.414062 31.203125 C 16.671875 31.097656 16.320312 30.796875 15.847656 30.226562 C 15.847656 30.035156 15.847656 29.84375 15.847656 29.644531 Z M 15.847656 29.644531 "/>
<path style=" stroke:none;fill-rule:nonzero;fill:rgb(96.470588%,90.980393%,99.215686%);fill-opacity:1;" d="M 5.085938 22.039062 C 6.238281 22.769531 6.238281 22.769531 6.457031 23.207031 C 5.992188 23.171875 5.992188 23.171875 5.476562 23.011719 C 5.222656 22.511719 5.222656 22.511719 5.085938 22.039062 Z M 5.085938 22.039062 "/>
<path style=" stroke:none;fill-rule:nonzero;fill:rgb(57.254905%,43.921569%,85.09804%);fill-opacity:1;" d="M 24.847656 4.09375 C 25.042969 4.160156 25.234375 4.222656 25.433594 4.289062 C 25.222656 5.027344 25.0625 5.550781 24.457031 6.046875 C 24.519531 5.832031 24.585938 5.621094 24.652344 5.398438 C 24.875 4.710938 24.875 4.710938 24.847656 4.09375 Z M 24.847656 4.09375 "/>
<path style=" stroke:none;fill-rule:nonzero;fill:rgb(92.941177%,86.666667%,99.215686%);fill-opacity:1;" d="M 7.628906 38.027344 C 8.503906 38.222656 8.503906 38.222656 9.390625 38.417969 C 9.390625 38.613281 9.390625 38.804688 9.390625 39.003906 C 8.585938 38.773438 8.238281 38.632812 7.628906 38.027344 Z M 7.628906 38.027344 "/>
<path style=" stroke:none;fill-rule:nonzero;fill:rgb(95.294118%,90.196079%,99.215686%);fill-opacity:1;" d="M 12.914062 27.691406 C 13.484375 27.902344 13.847656 28.039062 14.28125 28.472656 C 13.960938 28.539062 13.636719 28.601562 13.304688 28.667969 C 13.175781 28.347656 13.046875 28.023438 12.914062 27.691406 Z M 12.914062 27.691406 "/>
</g>
</svg>
